<svg xmlns="http://www.w3.org/2000/svg" viewBox="0 0 1024 1024" role="img" aria-label="主题漫游">
  <defs>
    <linearGradient id="surface" x1="132" y1="92" x2="900" y2="940" gradientUnits="userSpaceOnUse">
      <stop stop-color="#fff0f7"/>
      <stop offset=".35" stop-color="#eee9ff"/>
      <stop offset=".68" stop-color="#e0f4ff"/>
      <stop offset="1" stop-color="#e7faee"/>
    </linearGradient>
    <linearGradient id="line" x1="124" y1="110" x2="902" y2="922" gradientUnits="userSpaceOnUse">
      <stop stop-color="#ef8eb8"/>
      <stop offset=".36" stop-color="#a992e3"/>
      <stop offset=".7" stop-color="#65b9dc"/>
      <stop offset="1" stop-color="#69c99a"/>
    </linearGradient>
    <linearGradient id="outline" x1="96" y1="72" x2="932" y2="952" gradientUnits="userSpaceOnUse">
      <stop stop-color="#cc5f92"/>
      <stop offset=".34" stop-color="#7663bd"/>
      <stop offset=".68" stop-color="#398eae"/>
      <stop offset="1" stop-color="#3a9c6b"/>
    </linearGradient>
    <linearGradient id="upper" x1="150" y1="230" x2="545" y2="430" gradientUnits="userSpaceOnUse">
      <stop stop-color="#ffb9d4"/>
      <stop offset="1" stop-color="#b9a9ec"/>
    </linearGradient>
    <linearGradient id="lower" x1="496" y1="754" x2="884" y2="970" gradientUnits="userSpaceOnUse">
      <stop stop-color="#9fd8ef"/>
      <stop offset="1" stop-color="#9be0b9"/>
    </linearGradient>
    <filter id="shadow" x="-20%" y="-20%" width="140%" height="150%">
      <feDropShadow dx="0" dy="24" stdDeviation="26" flood-color="#8077a0" flood-opacity=".18"/>
    </filter>
  </defs>
  <rect x="56" y="56" width="912" height="912" rx="220" fill="url(#surface)" stroke="url(#outline)" stroke-width="24" filter="url(#shadow)"/>
  <rect x="80" y="80" width="864" height="864" rx="198" fill="none" stroke="#fff" stroke-opacity=".9" stroke-width="12"/>
  <rect x="98" y="98" width="828" height="828" rx="180" fill="none" stroke="url(#outline)" stroke-opacity=".22" stroke-width="5"/>
  <path d="M781.141 447.829H242.859a204.8 204.8 0 0 1 0-409.6h538.282a204.8 204.8 0 0 1 0 409.6zM242.859 89.429a153.6 153.6 0 0 0 0 307.2h538.282a153.6 153.6 0 0 0 0-307.2z" fill="url(#line)" stroke="#554d67" stroke-opacity=".2" stroke-width="7" stroke-linejoin="round"/>
  <path d="M475.989 232.277H178.517a99.157 99.157 0 0 0 0 198.315h297.472a99.157 99.157 0 1 0 0-198.315z" fill="url(#upper)" opacity=".48"/>
  <path d="M824.149 769.024H526.677a99.157 99.157 0 1 0 0 198.315h297.472a99.157 99.157 0 1 0 0-198.315z" fill="url(#lower)" opacity=".48"/>
  <path d="M781.141 986.112H242.859a204.8 204.8 0 0 1 0-409.6h538.282a204.8 204.8 0 0 1 0 409.6zM242.859 627.712a153.6 153.6 0 0 0 0 307.2h538.282a153.6 153.6 0 0 0 0-307.2zM781.141 313.344a70.485 70.485 0 1 1 70.486-70.485 70.485 70.485 0 0 1-70.486 70.485zm0-89.771a19.285 19.285 0 1 0 19.286 19.286 19.456 19.456 0 0 0-19.286-19.286z" fill="url(#line)" stroke="#554d67" stroke-opacity=".2" stroke-width="7" stroke-linejoin="round"/>
  <path d="M242.859 851.627a70.485 70.485 0 1 1 70.485-70.486 70.485 70.485 0 0 1-70.485 70.486zm0-89.771a19.285 19.285 0 1 0 19.285 19.285 19.456 19.456 0 0 0-19.285-19.285z" fill="url(#line)" stroke="#554d67" stroke-opacity=".2" stroke-width="7" stroke-linejoin="round"/>
</svg>
