<svg xmlns="http://www.w3.org/2000/svg" viewBox="0 0 1024 1024" role="img" aria-label="主题漫游">
  <defs>
    <linearGradient id="surface" x1="114" y1="96" x2="914" y2="932" gradientUnits="userSpaceOnUse">
      <stop stop-color="#f18db8"/>
      <stop offset=".34" stop-color="#a48de0"/>
      <stop offset=".68" stop-color="#63b8d8"/>
      <stop offset="1" stop-color="#68c99a"/>
    </linearGradient>
    <linearGradient id="outline" x1="84" y1="74" x2="940" y2="958" gradientUnits="userSpaceOnUse">
      <stop stop-color="#a84675"/>
      <stop offset=".36" stop-color="#6954ad"/>
      <stop offset=".7" stop-color="#2f809f"/>
      <stop offset="1" stop-color="#34865f"/>
    </linearGradient>
    <linearGradient id="shine" x1="244" y1="168" x2="766" y2="830" gradientUnits="userSpaceOnUse">
      <stop stop-color="#ffffff" stop-opacity=".34"/>
      <stop offset=".48" stop-color="#ffffff" stop-opacity=".08"/>
      <stop offset="1" stop-color="#ffffff" stop-opacity="0"/>
    </linearGradient>
    <filter id="shadow" x="-18%" y="-18%" width="136%" height="148%">
      <feDropShadow dx="0" dy="22" stdDeviation="24" flood-color="#5d5575" flood-opacity=".22"/>
    </filter>
    <filter id="arrow-shadow" x="-18%" y="-22%" width="136%" height="150%">
      <feDropShadow dx="0" dy="10" stdDeviation="10" flood-color="#4e4962" flood-opacity=".2"/>
    </filter>
  </defs>
  <path d="M73.130667 73.130667m438.869333 0 0 0q438.869333 0 438.869333 438.869333l0 0q0 438.869333-438.869333 438.869333l0 0q-438.869333 0-438.869333-438.869333l0 0q0-438.869333 438.869333-438.869333Z" fill="url(#surface)" stroke="url(#outline)" stroke-width="24" filter="url(#shadow)"/>
  <path d="M102 184C198 80 349 72 512 72c243 0 365 53 438 172v235C818 367 652 286 474 263 333 245 204 266 102 326Z" fill="url(#shine)"/>
  <path d="M305.066667 585.130667h-34.389334L343.893333 512l73.216 73.130667h-31.744a146.432 146.432 0 0 0 253.44 0h80.213334a219.477333 219.477333 0 0 1-413.866667 0z m413.866666-146.261334h32.170667L677.888 512l-73.130667-73.130667h34.048a146.432 146.432 0 0 0-253.525333 0h-80.213333a219.477333 219.477333 0 0 1 413.866666 0z" fill="#fff" stroke="#fff" stroke-width="8" stroke-linejoin="round" filter="url(#arrow-shadow)"/>
</svg>
